<?xml version="1.0" encoding="utf-8"?>
<!-- Generator: Adobe Illustrator 22.0.1, SVG Export Plug-In . SVG Version: 6.00 Build 0)  -->
<svg version="1.1" id="Livello_1" xmlns="http://www.w3.org/2000/svg" xmlns:xlink="http://www.w3.org/1999/xlink" x="0px" y="0px"
	 viewBox="0 0 297.1 297.2" style="enable-background:new 0 0 297.1 297.2;" xml:space="preserve">
<style type="text/css">
	.st0{fill:#45512D;}
</style>
<g>
	<path class="st0" d="M194.9,106.5c-0.2-14.3,61.4-12.7,61.4-12.7s0.8-18.3-23.5-47.8c-31.4-38.2-100.2-53.2-124-10.3
		c-3.6,6.6-9.2,21.8-2.7,35.1c1.7-3.8,5-9.2,10.9-15.7c11.6-12.7,26.9-18.5,26.9-18.5s-13.2,8.9-22.9,19.9
		c-6.2,7-9.7,15.1-11.4,19.9c1.4,2,2.9,4.1,4.5,6.2c6.2-6.2,21.9-21.2,36-29.6c18.1-10.8,26.6-10.4,26.6-10.4s-9.7,1.8-25.3,13.1
		c-12.4,9-26.6,27.3-31.8,34.3c4,5.4,8.4,11,12.9,16.7c3.6-1.9,11-8.1,23.3-12.1c18.2-6,32.3-5,32.3-5S172.8,93,157,99
		c-11.2,4.2-17.1,11.4-19.7,13.8c8.4,10.6,17.5,21.7,26.5,32.6c3.1-1.8,10.5-5.7,19.6-7.7c11.9-2.6,19.4,0.8,19.4,0.8
		s-8.3,0.4-18.8,3.8c-7.1,2.3-12.3,6.8-14.8,9.5c12.2,14.7,70.4,82,70.4,82s-24-25.6-54.3-58c-1.8,4.2-8.4,20.6-10.1,31.9
		c-1.9,13.1,0.6,24.1,0.6,24.1s-1.4-8.8-2-21.4c-0.5-10.8,4.9-33.2,7.1-39.2c-10.7-11.4-22-23.5-33.2-35.5
		c-3.1,4.8-10.1,16-15.9,29.1c-7.8,17.7-14.9,47.6-14.9,47.6s1.5-23.8,8.8-45c5.5-15.8,13.2-30.6,16.8-37.3
		c-7.8-8.4-15.6-16.7-23-24.6c-7.2,7.3-24,25.4-29.7,34.5c-7.9,12.7-20.3,44.9-20.3,44.9s3.1-25.3,16.6-47.1
		c10.5-17,22.6-32.2,27.4-38.7c-2.6-2.7-5.1-5.4-7.5-8.1c-0.6-0.6-22.5,9.4-34.3,20c-16.4,14.7-33.8,39.1-33.8,39.1
		s15.5-29.6,30.6-43.5c10.7-9.9,24.4-17.9,31.3-21.7c-1.4-1.3-2.8-2.5-4.2-3.6c-7.1-0.8-14.6-1.6-22.6,1.2
		c-10,3.6-19.1,12.3-19.1,12.3S60,84.4,72.6,79c5.3-2.3,10.2-3.3,14-3.8c-47.8-27-88.5,34.5-74,89.4c11.6,43.7,59.2,83.8,59.2,83.8
		s-2.6-23.3,3-42.8c5.6-19.5,20.3-54.6,37.8-52c17.5,2.6-33.6,60.4-27.3,96.1c5.3,30.1,66.9,35,66.9,35s-12.5-3.9-19.2-22.5
		c-6-16.7,7.3-73,20.8-75.1c17.5-2.8-19.3,60.9,11.7,86.4c17.7,14.6,41.6-3.3,60.4-9.5c18.8-6.2,38-1.7,38-1.7s1-9.9,2.3-31.8
		c1.4-22,15.2-37.6,4.3-51.6c-10.9-13.9-52.1-6.6-48.1-18.4c4-11.9,49.6,6,49.6,6s-0.4-10.7-1.1-35.7
		C270.3,105.7,195.1,120.8,194.9,106.5z"/>
</g>
</svg>
